<svg width="83" height="83" viewBox="0 0 83 83" fill="none" xmlns="http://www.w3.org/2000/svg">
<rect width="83" height="83" rx="41.5" fill="url(#paint0_linear_215_10)"/>
<path fill-rule="evenodd" clip-rule="evenodd" d="M19.9082 64.3198V45.8063H15.1344C14.8803 45.803 14.6327 45.7253 14.4223 45.5828C14.2119 45.4403 14.0479 45.2392 13.9506 45.0044C13.8533 44.7697 13.827 44.5115 13.8749 44.262C13.9228 44.0124 14.0428 43.7823 14.2201 43.6003L39.9371 17.251C40.0843 17.0998 40.2601 16.9793 40.4542 16.8965C40.6483 16.8138 40.857 16.7704 41.068 16.769C41.279 16.7675 41.4882 16.808 41.6835 16.8881C41.8787 16.9682 42.0561 17.0863 42.2054 17.2355L42.219 17.2491L55.6416 30.9382V28.4093C55.6409 28.2681 55.6679 28.128 55.7213 27.9972C55.7746 27.8664 55.8532 27.7474 55.9526 27.6469C56.0519 27.5465 56.1701 27.4666 56.3003 27.4119C56.4305 27.3571 56.5703 27.3285 56.7116 27.3277H61.1702C61.4552 27.3298 61.7277 27.4448 61.9279 27.6476C62.1282 27.8504 62.2397 28.1244 62.2382 28.4093V37.7079L67.9535 43.6139C68.1916 43.8607 68.3231 44.1912 68.3194 44.5341C68.3158 44.877 68.1774 45.2047 67.9341 45.4464C67.6948 45.6831 67.3719 45.8159 67.0353 45.816H62.2421V64.3295C62.2436 64.6145 62.132 64.8885 61.9318 65.0912C61.7316 65.294 61.4591 65.4091 61.1741 65.4111H20.9781C20.836 65.4104 20.6955 65.3815 20.5646 65.3261C20.4337 65.2707 20.3151 65.19 20.2157 65.0885C20.1162 64.987 20.0378 64.8668 19.985 64.7349C19.9322 64.603 19.9061 64.4619 19.9082 64.3198V64.3198Z" fill="#0E2951"/>
<path d="M52.2082 39.2759C51.4823 39.2797 50.7642 39.4265 50.095 39.7079C49.4258 39.9893 48.8186 40.3998 48.3081 40.9159C47.7976 41.432 47.3938 42.0436 47.1197 42.7158C46.8456 43.3881 46.7067 44.1077 46.7108 44.8336C46.7099 45.5791 46.8581 46.3172 47.1465 47.0046L43.1372 51.0567V38.7331C44.3198 38.2546 45.2992 37.3797 45.9075 36.2583C46.5158 35.1369 46.7151 33.8389 46.4714 32.5867C46.2276 31.3344 45.5559 30.206 44.5715 29.3946C43.587 28.5833 42.3509 28.1396 41.0752 28.1396C39.7995 28.1396 38.5634 28.5833 37.5789 29.3946C36.5944 30.206 35.9228 31.3344 35.679 32.5867C35.4353 33.8389 35.6346 35.1369 36.2429 36.2583C36.8512 37.3797 37.8306 38.2546 39.0132 38.7331V51.0567L35.0039 47.0046C35.2923 46.3172 35.4405 45.5791 35.4396 44.8336C35.4273 43.7491 35.0945 42.6924 34.483 41.7965C33.8715 40.9007 33.0087 40.2058 32.0032 39.7992C30.9976 39.3927 29.8943 39.2926 28.832 39.5117C27.7698 39.7308 26.796 40.2593 26.0334 41.0305C25.2708 41.8018 24.7534 42.7814 24.5462 43.8461C24.3391 44.9107 24.4516 46.0129 24.8694 47.0138C25.2873 48.0147 25.9919 48.8696 26.8945 49.471C27.7972 50.0723 28.8575 50.3933 29.9422 50.3933C30.678 50.3927 31.406 50.2424 32.082 49.9517L39.0054 56.9549V65.4014H43.1294V56.9529L50.0548 49.9498C50.7306 50.2409 51.4587 50.3912 52.1946 50.3914C53.6509 50.3641 55.0383 49.7665 56.0585 48.727C57.0787 47.6875 57.6503 46.2892 57.6503 44.8326C57.6503 43.3761 57.0787 41.9778 56.0585 40.9383C55.0383 39.8988 53.6509 39.3012 52.1946 39.2739L52.2082 39.2759ZM29.9422 47.0571C29.5014 47.0621 29.069 46.936 28.7001 46.6947C28.3311 46.4535 28.0422 46.108 27.87 45.7022C27.6978 45.2964 27.6502 44.8485 27.7331 44.4155C27.816 43.9826 28.0257 43.584 28.3357 43.2705C28.6456 42.957 29.0417 42.7427 29.4737 42.6549C29.9057 42.567 30.3541 42.6095 30.7618 42.7771C31.1696 42.9446 31.5184 43.2295 31.7638 43.5957C32.0093 43.9619 32.1403 44.3928 32.1404 44.8336C32.1422 45.124 32.0867 45.4119 31.9772 45.6808C31.8677 45.9497 31.7062 46.1944 31.5021 46.4009C31.2979 46.6074 31.0551 46.7717 30.7874 46.8842C30.5198 46.9968 30.2325 47.0556 29.9422 47.0571V47.0571ZM41.0849 35.8015C40.6442 35.8062 40.212 35.6797 39.8433 35.4382C39.4746 35.1967 39.186 34.8511 39.0141 34.4452C38.8422 34.0394 38.7949 33.5916 38.878 33.1587C38.9611 32.7259 39.171 32.3275 39.4811 32.0142C39.7911 31.7009 40.1872 31.4868 40.6191 31.3991C41.0511 31.3114 41.4993 31.3541 41.907 31.5217C42.3146 31.6892 42.6633 31.9742 42.9087 32.3403C43.154 32.7065 43.285 33.1373 43.2851 33.578C43.2869 33.8686 43.2313 34.1566 43.1217 34.4257C43.0121 34.6947 42.8504 34.9395 42.6461 35.146C42.4417 35.3526 42.1987 35.5167 41.9308 35.6292C41.6629 35.7417 41.3755 35.8003 41.0849 35.8015V35.8015ZM52.2179 47.0571C51.7772 47.0617 51.3451 46.9353 50.9763 46.6938C50.6076 46.4523 50.319 46.1067 50.1471 45.7008C49.9753 45.2949 49.9279 44.8472 50.011 44.4143C50.0942 43.9815 50.3041 43.5831 50.6141 43.2698C50.9241 42.9565 51.3202 42.7424 51.7522 42.6547C52.1841 42.567 52.6324 42.6097 53.04 42.7772C53.4477 42.9448 53.7963 43.2298 54.0417 43.5959C54.2871 43.9621 54.4181 44.3929 54.4181 44.8336C54.4199 45.125 54.3641 45.4138 54.2538 45.6835C54.1435 45.9532 53.9811 46.1984 53.7757 46.405C53.5703 46.6117 53.3261 46.7757 53.0571 46.8876C52.7881 46.9995 52.4996 47.0571 52.2082 47.0571H52.2179Z" fill="white"/>
<defs>
<linearGradient id="paint0_linear_215_10" x1="41.5" y1="0" x2="41.5" y2="83" gradientUnits="userSpaceOnUse">
<stop stop-color="#3B4BE0"/>
<stop offset="1" stop-color="#D93159"/>
</linearGradient>
</defs>
</svg>
