<svg width="450" height="270" viewBox="0 0 450 270" fill="none" xmlns="http://www.w3.org/2000/svg">
<g clip-path="url(#clip0_173_30)">
<path d="M112.553 74.9153C112.553 74.9153 117.984 79.1027 124.318 77.5364C130.653 75.9701 141.762 76.062 147.294 77.5364C152.826 79.0108 163.677 77.2615 160.542 68.0101C157.407 58.7588 145.469 64.8343 145.469 64.8343C145.469 64.8343 138.639 54.1945 133.22 60.119C128.966 64.7701 129.835 57.1907 123.03 59.2208C117.588 60.8439 121.24 63.563 116.253 64.8343C106.215 67.3931 112.553 74.9153 112.553 74.9153Z" fill="#2F2D45"/>
<path d="M322.563 81.0494C322.563 81.0494 330.23 87.003 339.173 84.7761C343.506 83.6971 346.837 90.9999 355.1 90.9999C363.363 90.9999 367.583 83.6955 371.609 84.7761C379.418 86.8723 394.739 84.3852 390.312 71.232C385.886 58.0788 369.032 66.7168 369.032 66.7168C369.032 66.7168 359.39 51.5895 351.74 60.0127C345.734 66.6254 346.328 56.2521 337.354 58.7358C331.982 60.2223 334.827 64.9093 327.786 66.7168C313.616 70.3548 322.563 81.0494 322.563 81.0494Z" fill="#2F2D45"/>
<path d="M258.1 308.65C258.1 308.65 363.47 340.009 418.677 322.886C445.425 314.589 484.508 158.769 455.061 163.167C450.728 163.815 445.193 165.178 438.1 167.572C405.002 178.74 381.1 174.2 355.1 204.453C348.58 212.039 350.738 234.336 311.925 246.863C269.999 260.394 258.1 308.65 258.1 308.65Z" fill="url(#paint0_radial_173_30)"/>
<path d="M14 270.8C14 270.8 21.7886 247.86 53.2317 251.084C106.31 256.54 109.772 219.093 142.801 218.101C176.263 217.109 191.12 228.269 202.514 244.637C202.514 244.637 239.438 191.69 314.151 198.385C388.865 205.081 418 270.676 418 270.676H14V270.8Z" fill="url(#paint1_radial_173_30)"/>
<path d="M356.91 193.411V193.411C356.91 193.411 356.91 193.298 356.91 193.411C357.024 193.185 357.138 193.073 357.251 192.96C364.525 183.477 362.252 169.592 361.57 166.544C361.57 166.318 361.456 166.206 361.456 165.98V165.867V165.867C361.229 164.512 361.116 163.158 361.116 161.803C361.116 149.724 371.003 139.79 383.278 139.79C395.438 139.79 405.44 149.611 405.44 161.803C405.44 163.158 405.326 164.512 404.985 165.867V165.867V165.98C404.985 166.206 404.871 166.318 404.871 166.544C404.189 169.705 402.03 183.59 409.19 192.96C409.304 193.073 409.304 193.185 409.417 193.298C409.417 193.298 409.417 193.298 409.417 193.411V193.411C412.713 198.378 414.645 204.361 414.645 210.796C414.645 228.067 400.553 242.065 383.164 242.065C365.775 242.065 351.682 228.067 351.682 210.796C351.569 204.361 353.501 198.378 356.91 193.411Z" fill="url(#paint2_radial_173_30)"/>
<path d="M382.596 165.19V269.946" stroke="white" stroke-width="1.6" stroke-linecap="round"/>
<path d="M399.416 197.362L382.596 223.778" stroke="white" stroke-width="1.6" stroke-linecap="round"/>
<path d="M371.344 180.203L382.596 194.879" stroke="white" stroke-width="1.6" stroke-linecap="round"/>
<path d="M392.91 141.176V141.176C392.91 141.176 392.91 141.063 392.91 141.176C393.024 140.951 393.138 140.838 393.251 140.726C400.525 131.285 398.252 117.46 397.57 114.425C397.57 114.2 397.456 114.088 397.456 113.863V113.751V113.751C397.229 112.402 397.116 111.053 397.116 109.704C397.116 97.6778 407.003 87.7868 419.278 87.7868C431.438 87.7868 441.44 97.5654 441.44 109.704C441.44 111.053 441.326 112.402 440.985 113.751V113.751V113.863C440.985 114.088 440.871 114.2 440.871 114.425C440.189 117.572 438.03 131.397 445.19 140.726C445.304 140.838 445.304 140.951 445.417 141.063C445.417 141.063 445.417 141.063 445.417 141.176V141.176C448.713 146.121 450.645 152.078 450.645 158.485C450.645 175.682 436.553 189.619 419.164 189.619C401.775 189.619 387.682 175.682 387.682 158.485C387.569 152.078 389.501 146.121 392.91 141.176Z" fill="url(#paint3_linear_173_30)"/>
<path d="M418.596 113.076V269.873" stroke="white" stroke-width="1.6" stroke-linecap="round"/>
<path d="M435.416 145.11L418.596 171.411" stroke="white" stroke-width="1.6" stroke-linecap="round"/>
<path d="M407.344 128.025L418.596 142.637" stroke="white" stroke-width="1.6" stroke-linecap="round"/>
<path d="M247.482 236.551L245.488 220.318L254.222 221.742L255.361 238.829L247.007 237.026L247.482 236.551Z" fill="#ECACA1"/>
<path d="M256.69 234.653C256.69 234.653 249.665 237.216 246.533 232.659L231.154 240.633L258.589 241.582L256.69 234.653Z" fill="#F44B69"/>
<path d="M231.059 243.101L258.494 244.146L258.589 241.677L231.154 240.633L231.059 243.101Z" fill="white"/>
<path d="M239.982 121.4C239.982 121.4 236.185 136.114 238.464 178.264L241.881 226.583H259.538L254.507 122.159L239.982 121.4Z" fill="#7A39FA"/>
<path d="M289.916 227.817L280.518 214.337L288.017 209.686L297.321 224.305L289.916 228.482V227.817Z" fill="#ECACA1"/>
<path d="M295.612 220.318C295.612 220.318 292.005 226.963 286.594 225.539L280.328 241.677L301.593 224.305L295.612 220.318Z" fill="#F44B69"/>
<path d="M281.942 243.576L303.206 226.109L301.687 224.21L280.423 241.677L281.942 243.576Z" fill="white"/>
<path d="M264.57 125.957C264.57 125.957 270.645 131.747 270.455 148.36C270.265 164.973 275.487 182.251 275.487 182.251L256.406 184.244C256.406 184.244 245.583 161.556 241.976 127.381L264.57 125.957Z" fill="#7A39FA"/>
<path d="M271.12 173.992C271.12 173.992 293.334 196.68 299.884 212.818L282.417 221.742L256.595 184.339L271.12 173.992Z" fill="#7A39FA"/>
<path d="M257.924 186.428C257.924 186.428 253.747 183.105 251.564 173.992C249.476 164.878 246.248 149.31 246.248 149.31L242.451 144.563" stroke="#B2ACC7" stroke-width="0.5"/>
<circle cx="262.956" cy="47.8286" r="8.82857" fill="#EAEAEA"/>
<circle cx="254.697" cy="55.3281" r="7.30968" fill="#F44B69"/>
<path d="M243.97 74.2193L247.672 85.4212L257.924 81.2442L252.229 64.4415L243.97 74.2193Z" fill="#ECACA1"/>
<path d="M246.153 80.7696C246.058 80.5797 248.052 73.7447 248.052 73.7447L243.78 75.6433L246.153 80.7696Z" fill="#ED9083"/>
<path d="M240.837 50.9613C240.837 50.9613 235.521 51.8157 235.236 58.5557C235.236 58.5557 235.046 63.3972 234.951 70.4221C234.856 74.1244 238.179 77.0673 241.786 76.3078C243.97 75.8332 246.438 74.8839 248.621 73.1751L251.659 70.3272C258.874 62.2581 252.229 49.4424 241.596 50.8663C241.406 50.8663 241.122 50.8663 240.837 50.9613Z" fill="#ECACA1"/>
<path d="M236.185 64.7263L233.622 67.3843C233.147 67.764 233.242 68.7134 233.717 68.7134L236.09 68.9981V64.7263H236.185Z" fill="#ECACA1"/>
<path d="M237.514 60.3594C237.514 60.3594 235.711 60.0746 235.616 60.8341C235.616 60.8341 235.521 61.4037 237.04 61.5935C238.559 61.7834 239.033 61.6885 239.223 61.2138C239.413 60.7392 238.369 60.4544 237.514 60.3594Z" fill="#03041F"/>
<circle cx="237.071" cy="64.8899" r="0.759481" transform="rotate(-10.7481 237.071 64.8899)" fill="#03041F"/>
<path d="M235.78 70.698C236.16 71.0777 237.584 70.8879 237.869 70.1284" stroke="#1D0A05" stroke-width="0.603571" stroke-linecap="round" stroke-linejoin="round"/>
<path d="M247.957 62.9226C247.957 62.9226 251.089 46.6894 237.04 53.2396C237.04 53.2396 242.451 44.3161 254.792 49.7272C257.355 50.8664 260.013 53.9991 260.582 56.7521C261.342 61.2138 258.874 65.106 254.887 72.1309L250.14 66.6249C249.95 65.6756 247.957 62.9226 247.957 62.9226Z" fill="#EAEAEA"/>
<path d="M252.513 58.176L249.665 64.9161C231.723 59.3152 239.888 50.8664 239.888 50.8664C239.888 50.8664 254.412 46.4995 252.513 58.176Z" fill="#EAEAEA"/>
<path d="M243.045 62.126L246.628 65.3908L249.096 60.7392L243.045 62.126Z" fill="#E3E0E0"/>
<path d="M242.451 51.7207C242.451 51.7207 236.28 52.765 235.426 57.0369C235.426 57.0369 234.382 52.3853 240.172 50.2968C245.868 48.1134 242.451 51.7207 242.451 51.7207Z" fill="#E3E0E0"/>
<circle cx="249.665" cy="64.2516" r="3.51244" fill="#ECACA1"/>
<path d="M248.526 65.5806C248.526 65.5806 248.336 63.0175 250.805 63.2074" stroke="#1D0A05" stroke-width="0.603571" stroke-linecap="round" stroke-linejoin="round"/>
<path fill-rule="evenodd" clip-rule="evenodd" d="M266.948 84.968C266.777 85.105 281.277 93.87 283.461 121.115C283.746 124.343 281.467 127.096 278.24 127.57C275.202 128.045 271.31 126.147 270.455 123.204L260.962 95.1991L266.948 84.968Z" fill="url(#paint4_linear_173_30)"/>
<path fill-rule="evenodd" clip-rule="evenodd" d="M238.559 87.7945L228.211 107.92C226.787 111.147 228.116 114.85 231.154 116.559V116.559C234.382 118.267 238.464 117.033 240.172 113.806L251.754 94.3447C253.463 91.212 252.703 87.4147 249.95 85.1364V85.1364C246.343 82.0037 240.552 83.3327 238.559 87.7945Z" fill="url(#paint5_linear_173_30)"/>
<circle cx="202.01" cy="99.471" r="6.36037" fill="#ECACA1"/>
<path d="M200.776 93.3005C200.776 93.3005 201.061 90.7373 204.099 92.0664C206.662 93.2055 210.269 97.1926 207.326 102.794L200.776 93.3005Z" fill="#ECACA1"/>
<path d="M220.901 100.8L206.852 97.1926L203.719 105.547L218.813 109.818L220.901 100.8Z" fill="#EDAC9F"/>
<path fill-rule="evenodd" clip-rule="evenodd" d="M235.9 105.452L210.554 96.8129L208.086 108.679L231.534 116.938C235.141 118.457 239.318 116.274 239.982 112.382V112.382C240.647 109.344 238.843 106.401 235.9 105.452Z" fill="url(#paint6_linear_173_30)"/>
<path d="M204.099 100.515L199.922 103.933C199.732 104.123 199.352 104.028 199.257 103.648L192.422 89.2184C192.232 88.8387 192.327 88.459 192.517 88.2691L196.694 84.8516C196.884 84.6618 197.264 84.7567 197.359 85.1364L204.194 99.5659C204.383 99.8507 204.288 100.23 204.099 100.515Z" fill="#444548"/>
<path d="M204.858 99.8507L200.396 103.553C200.111 103.743 199.827 103.648 199.637 103.268L192.897 88.7438C192.707 88.364 192.802 87.9843 193.087 87.7945L197.548 84.0922C197.833 83.9023 198.118 83.9972 198.308 84.3769L205.048 98.9014C205.143 99.1862 205.143 99.6608 204.858 99.8507Z" fill="black"/>
<path d="M205.807 95.3889L205.902 93.3005L202.485 90.6424C202.01 90.2627 201.251 90.3576 200.871 90.7373V90.7373C200.586 91.0221 200.396 91.4968 200.966 92.1613L205.523 95.6737" fill="#ECACA1"/>
<path fill-rule="evenodd" clip-rule="evenodd" d="M242.261 86.1806C240.172 89.1235 236.755 95.1991 236.66 103.363C236.66 103.553 236.66 103.838 236.66 104.028C236.85 105.831 236.28 119.406 235.995 126.431C235.9 128.235 236.85 131.747 238.369 132.602C241.596 134.406 255.551 136.019 267.133 132.792C268.747 132.317 269.696 130.608 269.221 128.9C267.987 124.628 263.62 114.47 266.658 106.401C273.968 87.1299 266.943 83.6175 261.817 82.6682C261.152 82.5733 258.684 84.0921 258.019 84.0921L245.868 84.282C244.444 84.1871 243.115 84.9465 242.261 86.1806Z" fill="url(#paint7_linear_173_30)"/>
<path d="M240.267 91.5917C240.267 91.5917 236.185 95.3889 236.755 106.116C236.755 106.116 236.47 111.242 236.47 116.938" stroke="#DD3D5A" stroke-width="0.5"/>
<path d="M255.266 78.6811C255.266 78.6811 259.918 93.7751 275.487 95.5788C290.106 97.2875 288.587 93.0157 300.738 94.3447C300.738 94.3447 298.84 98.4267 291.815 105.262C287.923 108.964 288.112 111.717 288.112 111.717C288.112 111.717 265.234 112.571 256.216 100.8C249.76 92.4461 248.241 81.7189 248.241 81.7189L255.266 78.6811Z" fill="#7A39FA"/>
<path d="M302.922 98.1419C303.112 98.1419 303.396 97.9521 303.396 97.7622C303.396 97.4774 303.301 97.2875 303.017 97.1926L295.802 96.0534C295.517 96.0534 295.327 96.1484 295.232 96.4332C295.232 96.718 295.327 96.9078 295.612 97.0027L302.922 98.1419C302.827 98.1419 302.922 98.1419 302.922 98.1419Z" fill="#F44B69"/>
<path d="M300.264 101.559C300.453 101.559 300.738 101.37 300.738 101.18C300.738 100.895 300.643 100.705 300.358 100.61L293.144 99.471C292.859 99.376 292.669 99.5659 292.574 99.8507C292.574 100.135 292.669 100.325 292.954 100.42L300.264 101.559V101.559Z" fill="#F44B69"/>
<path d="M296.846 105.262C297.036 105.262 297.321 105.072 297.321 104.882C297.321 104.597 297.226 104.407 296.941 104.312L289.726 103.173C289.441 103.173 289.252 103.268 289.157 103.553C289.157 103.838 289.252 104.028 289.536 104.123L296.846 105.262C296.751 105.262 296.751 105.262 296.846 105.262Z" fill="#F44B69"/>
<path d="M293.618 109.629C293.808 109.629 294.093 109.439 294.093 109.249C294.093 108.964 293.998 108.774 293.713 108.679L286.499 107.54C286.214 107.445 286.024 107.635 285.929 107.92C285.929 108.205 286.024 108.394 286.309 108.489L293.618 109.629V109.629Z" fill="#F44B69"/>
<path d="M242.356 76.8774C245.299 77.447 252.418 78.3963 257.545 74.4092C258.114 73.9346 258.874 74.1244 259.159 74.7889L262.006 81.9087C262.196 82.2885 262.101 82.6682 261.817 83.0479C260.013 85.1364 252.608 92.6359 241.786 84.282C241.501 84.0922 241.406 83.8074 241.406 83.5226L241.122 78.0166C241.122 77.3521 241.691 76.7825 242.356 76.8774Z" fill="#6822F2"/>
<circle cx="247.672" cy="116.084" r="5.69585" fill="#ECACA1"/>
<path d="M242.261 114.565C242.261 114.565 240.362 112.856 242.735 111.147C245.109 109.439 249.191 108.489 252.608 113.141L242.261 114.565Z" fill="#ECACA1"/>
<path d="M250.805 113.046L259.918 114.945L257.924 122.254L249.76 119.976L250.805 113.046Z" fill="#EDAC9F"/>
<path fill-rule="evenodd" clip-rule="evenodd" d="M270.74 115.704C270.17 115.514 255.171 113.141 255.171 113.141L253.653 123.678L277.006 127.665L270.74 115.704Z" fill="url(#paint8_linear_173_30)"/>
<path d="M273.873 116.084L255.171 113.141" stroke="#DD3D5A" stroke-width="0.5"/>
<path d="M268.272 125.957L253.747 123.678L254.032 121.115" stroke="#DD3D5A" stroke-width="0.5"/>
<g opacity="0.0937733" filter="url(#filter0_f_173_30)">
<ellipse cx="191.81" cy="237.335" rx="25" ry="7" fill="#AB4600"/>
</g>
<path d="M183.783 192.788C183.783 192.788 225.933 173.707 246.533 119.027" stroke="#28233C" stroke-width="0.807577"/>
<path d="M210.364 221.647C211.788 222.312 213.497 222.976 215.111 223.451C216.724 223.925 218.433 224.21 220.047 224.02C221.661 223.925 223.085 223.261 223.844 221.932C224.699 220.603 224.888 218.799 224.794 217.09V217.09C224.794 216.806 224.983 216.616 225.268 216.616C225.553 216.616 225.743 216.806 225.743 216.995C225.933 217.945 226.028 218.894 226.028 219.843C226.028 220.793 225.838 221.837 225.458 222.786C225.078 223.735 224.319 224.685 223.465 225.254C222.61 225.919 221.566 226.299 220.522 226.488C218.528 226.963 216.535 226.868 214.636 226.583C212.737 226.299 210.839 225.919 208.94 225.254C207.896 224.875 207.326 223.83 207.706 222.786C208.086 221.742 209.13 221.172 210.174 221.552C210.079 221.552 210.174 221.647 210.364 221.647V221.647Z" fill="#FCFAFA"/>
<path d="M199.447 222.406C199.447 222.406 196.219 219.559 192.897 223.071C189.574 226.583 199.922 235.032 199.922 235.032C199.922 235.032 193.941 234.273 192.802 238.165H206.662C207.231 238.165 207.801 237.69 207.801 237.026V237.026C207.801 235.982 207.421 235.032 206.852 234.273L203.814 230.476L199.447 222.406Z" fill="#DCDCDC"/>
<path d="M180.081 214.527L175.335 235.222C175.335 235.222 171.442 234.273 170.683 238.165H177.233L187.865 217.945L180.081 214.527Z" fill="#DCDCDC"/>
<path d="M180.366 187.187L211.693 222.122C213.212 223.83 214.066 226.109 213.971 228.482C213.877 231.33 213.022 234.653 209.794 235.032C204.099 235.792 198.023 234.273 187.011 223.546C187.011 223.546 179.132 221.267 177.803 206.078L171.063 196.49L180.366 187.187Z" fill="url(#paint9_linear_173_30)"/>
<ellipse cx="210.783" cy="225.621" rx="1.97311" ry="2.28547" fill="black"/>
<ellipse cx="196.783" cy="226.621" rx="1.97311" ry="2.28547" fill="black"/>
<path d="M204.383 222.406C204.383 222.406 201.156 219.559 197.833 223.071C194.511 226.583 204.858 235.032 204.858 235.032C204.858 235.032 198.877 234.273 197.738 238.165H211.598C212.168 238.165 212.737 237.69 212.737 237.026V237.026C212.737 235.982 212.358 235.032 211.788 234.273L208.75 230.476L204.383 222.406Z" fill="#F2F2F2"/>
<path d="M180.366 187.187C180.366 187.187 178.562 184.244 175.524 184.244C173.626 184.244 171.632 184.719 169.259 186.807C166.981 188.896 162.424 187.567 162.424 187.567C162.424 187.567 160.69 194.249 171.133 196.527C171.133 196.527 173.987 194.815 175.105 193.685C177.065 191.702 180.366 187.187 180.366 187.187Z" fill="white"/>
<path d="M177.328 184.719C177.328 184.719 172.012 190.415 174.955 192.978C177.898 195.541 179.037 190.415 181.885 188.991C181.885 188.991 183.404 187.187 181.125 185.383C178.657 183.485 177.328 184.719 177.328 184.719Z" fill="black"/>
<circle cx="162.424" cy="187.662" r="1.42396" fill="#060607"/>
<path d="M174.1 201.332L172.487 198.674V198.674V198.674V198.674V198.674C172.961 198.674 180.461 198.199 184.258 191.554L186.062 193.737C181.79 201.332 174.765 201.332 174.1 201.332Z" fill="#F44B69"/>
<circle cx="170.398" cy="188.231" r="0.569585" fill="#28233C"/>
<path d="M183.024 219.274L185.302 235.222C185.302 235.222 181.695 234.842 181.22 238.165H188.72L191.188 217.945L183.024 219.274Z" fill="#F9F9F9"/>
<path d="M182.454 206.553C179.701 212.059 183.024 216.806 183.024 216.806L183.688 225.444" stroke="#DCDCDC" stroke-width="0.662523" stroke-linecap="round" stroke-linejoin="round"/>
<path d="M199.447 221.647C199.447 221.647 195.84 224.685 199.162 230.096C201.251 233.418 204.858 235.127 204.858 235.127" stroke="#DCDCDC" stroke-width="0.662523" stroke-linecap="round" stroke-linejoin="round"/>
<path d="M190.144 226.394L191.093 216.046" stroke="#DCDCDC" stroke-width="0.662523" stroke-linecap="round" stroke-linejoin="round"/>
<ellipse cx="184.727" cy="198.847" rx="1.72728" ry="1.84716" fill="black"/>
<ellipse cx="183.727" cy="223.847" rx="1.72728" ry="1.84716" fill="black"/>
<ellipse cx="188.636" cy="205.845" rx="2.63636" ry="1.84518" fill="black"/>
<ellipse cx="180.121" cy="204.587" rx="2.1213" ry="1.58739" fill="black"/>
<ellipse cx="200.061" cy="216.105" rx="2.061" ry="1.10486" fill="black"/>
<ellipse cx="194.229" cy="219.369" rx="1.44007" ry="2.09433" fill="black"/>
<ellipse cx="185.924" cy="215.718" rx="2.07638" ry="1.69193" fill="black"/>
<ellipse cx="193.879" cy="210.869" rx="2.1213" ry="0.966824" fill="black"/>
<ellipse cx="202.898" cy="228.321" rx="2.1213" ry="0.966824" transform="rotate(60 202.898 228.321)" fill="black"/>
</g>
<defs>
<filter id="filter0_f_173_30" x="164.092" y="227.617" width="55.4366" height="19.4366" filterUnits="userSpaceOnUse" color-interpolation-filters="sRGB">
<feFlood flood-opacity="0" result="BackgroundImageFix"/>
<feBlend mode="normal" in="SourceGraphic" in2="BackgroundImageFix" result="shape"/>
<feGaussianBlur stdDeviation="1.35914" result="effect1_foregroundBlur_173_30"/>
</filter>
<radialGradient id="paint0_radial_173_30" cx="0" cy="0" r="1" gradientUnits="userSpaceOnUse" gradientTransform="translate(434.793 176.112) rotate(132.763) scale(100.101 102.712)">
<stop stop-color="#1E1C37"/>
<stop offset="1" stop-color="#26243F"/>
</radialGradient>
<radialGradient id="paint1_radial_173_30" cx="0" cy="0" r="1" gradientUnits="userSpaceOnUse" gradientTransform="translate(361.355 203.052) rotate(169.219) scale(322.857 118.817)">
<stop stop-color="#1E1C37"/>
<stop offset="1" stop-color="#26243F"/>
</radialGradient>
<radialGradient id="paint2_radial_173_30" cx="0" cy="0" r="1" gradientUnits="userSpaceOnUse" gradientTransform="translate(360.506 147.149) rotate(59.7056) scale(97.994 85.4817)">
<stop stop-color="#2DA164"/>
<stop offset="1" stop-color="#1E864E"/>
</radialGradient>
<linearGradient id="paint3_linear_173_30" x1="450.645" y1="87.7868" x2="450.645" y2="189.619" gradientUnits="userSpaceOnUse">
<stop stop-color="#FFC982"/>
<stop offset="1" stop-color="#FF8532"/>
</linearGradient>
<linearGradient id="paint4_linear_173_30" x1="249.324" y1="111.614" x2="288.825" y2="132.219" gradientUnits="userSpaceOnUse">
<stop stop-color="#F44B69"/>
<stop offset="1" stop-color="#FFA59D"/>
</linearGradient>
<linearGradient id="paint5_linear_173_30" x1="214.709" y1="104.594" x2="251.147" y2="131.173" gradientUnits="userSpaceOnUse">
<stop stop-color="#F44B69"/>
<stop offset="1" stop-color="#FFA59D"/>
</linearGradient>
<linearGradient id="paint6_linear_173_30" x1="191.532" y1="109.683" x2="212.806" y2="142.361" gradientUnits="userSpaceOnUse">
<stop stop-color="#F44B69"/>
<stop offset="1" stop-color="#FFA59D"/>
</linearGradient>
<linearGradient id="paint7_linear_173_30" x1="218.513" y1="115.119" x2="271.891" y2="149.442" gradientUnits="userSpaceOnUse">
<stop stop-color="#F44B69"/>
<stop offset="1" stop-color="#FFA59D"/>
</linearGradient>
<linearGradient id="paint8_linear_173_30" x1="241.585" y1="122.21" x2="256.365" y2="145.696" gradientUnits="userSpaceOnUse">
<stop stop-color="#F44B69"/>
<stop offset="1" stop-color="#FFA59D"/>
</linearGradient>
<linearGradient id="paint9_linear_173_30" x1="157.978" y1="213.748" x2="195.459" y2="248.106" gradientUnits="userSpaceOnUse">
<stop stop-color="white"/>
<stop offset="1" stop-color="#F1F1F1"/>
</linearGradient>
<clipPath id="clip0_173_30">
<rect width="450" height="270" fill="white"/>
</clipPath>
</defs>
</svg>
